<?xml version="1.0" encoding="utf-8"?>
<!-- Generator: Adobe Illustrator 18.0.0, SVG Export Plug-In . SVG Version: 6.00 Build 0)  -->
<!DOCTYPE svg PUBLIC "-//W3C//DTD SVG 1.1//EN" "http://www.w3.org/Graphics/SVG/1.1/DTD/svg11.dtd">
<svg version="1.1" id="Layer_1" xmlns="http://www.w3.org/2000/svg" xmlns:xlink="http://www.w3.org/1999/xlink" x="0px" y="0px"
	 viewBox="0 0 360 360" enable-background="new 0 0 360 360" xml:space="preserve">
<g>
	<g>
		<g>
			<polygon fill="#C216C4" points="178.2,54.4 72.6,115.3 178.2,123.8 			"/>
			<polygon fill="#C216C4" points="69.7,122.9 69.7,242.9 114,234.5 			"/>
			<polygon fill="#C216C4" points="177.3,126.3 70.4,117.7 116,232.5 			"/>
			<polygon fill="#C216C4" points="240.9,234.2 179.4,127.8 118,234.2 			"/>
			<polygon fill="#C216C4" points="180.7,54.4 180.7,123.8 286.3,115.3 			"/>
			<polygon fill="#C216C4" points="242.9,232.5 288.5,117.7 181.6,126.3 			"/>
			<polygon fill="#C216C4" points="185.5,303.6 286.8,245.1 243.6,236.9 			"/>
			<polygon fill="#C216C4" points="289.2,242.9 289.2,122.9 244.9,234.5 			"/>
			<polygon fill="#C216C4" points="118.6,236.8 179.4,306.6 240.3,236.8 			"/>
			<polygon fill="#C216C4" points="72,245.1 173.4,303.6 115.3,236.9 			"/>
		</g>
		<g opacity="0.25">
			<polygon fill="#FFFFFF" points="178.2,54.4 72.6,115.3 94.9,117.1 			"/>
			<polygon fill="#FFFFFF" points="69.7,122.9 69.7,242.9 76.2,241.7 			"/>
			<polygon fill="#FFFFFF" points="125.4,216.3 70.4,117.7 116,232.5 			"/>
			<polygon fill="#FFFFFF" points="189.2,144.7 179.4,127.8 118,234.2 131.8,234.2 			"/>
			<polygon fill="#FFFFFF" points="180.7,54.4 180.7,123.8 201.6,122.1 			"/>
			<polygon fill="#FFFFFF" points="191.1,142.9 288.5,117.7 181.6,126.3 			"/>
			<polygon fill="#FFFFFF" points="185.5,303.6 256.9,239.4 243.6,236.9 			"/>
			<polygon fill="#FFFFFF" points="256.8,236.8 289.2,122.9 244.9,234.5 			"/>
			<polygon fill="#FFFFFF" points="118.6,236.8 179.4,306.6 132.6,236.9 			"/>
			<polygon fill="#FFFFFF" points="72,245.1 121.8,244.3 115.3,236.9 			"/>
		</g>
		<path style="fill: black; stroke: black; stroke-width: 8;" fill="#303030" d="M291.6,119.2c0-2.4-1.3-4.5-3.3-5.7L182.4,52.4c-1.8-1.1-4.1-1.1-6,0L70.3,114.1c-1.9,1.1-3.1,3.2-3.1,5.4
			l-0.1,122.3c0,2.1,1.1,4.1,3,5.2l106.4,61.4c1.8,1,4,1,5.8,0l106.4-61.4c1.8-1.1,3-3,3-5.2L291.6,119.2z M245.3,233.5l42.1-106.1
			c0.4-0.9,1.8-0.7,1.8,0.3v114c0,0.6-0.5,1-1.1,0.9l-42.1-8C245.4,234.6,245.1,234,245.3,233.5z M120.6,236.8h117.6
			c0.8,0,1.2,0.9,0.7,1.5l-58.8,67.5c-0.4,0.4-1,0.4-1.4,0l-58.8-67.5C119.4,237.7,119.8,236.8,120.6,236.8z M180.2,129.2
			l59.8,103.7c0.4,0.6-0.1,1.4-0.8,1.4H119.6c-0.7,0-1.2-0.8-0.8-1.4l59.8-103.7C179,128.6,179.9,128.6,180.2,129.2z M183,126.2
			l104-8.4c0.7-0.1,1.2,0.6,0.9,1.3l-44.4,111.7c-0.3,0.7-1.3,0.8-1.7,0.1l-59.6-103.3C182,127,182.3,126.3,183,126.2z M115.3,230.8
			L70.9,119.1c-0.3-0.6,0.2-1.3,0.9-1.3l104,8.4c0.7,0.1,1.1,0.8,0.7,1.4L117,230.9C116.6,231.6,115.6,231.5,115.3,230.8z
			 M180.7,122.8V56c0-0.7,0.8-1.2,1.4-0.8l101.6,58.7c0.8,0.5,0.5,1.6-0.4,1.7l-101.6,8.2C181.2,123.8,180.7,123.4,180.7,122.8z
			 M178.2,56v66.9c0,0.5-0.5,1-1,0.9l-101.6-8.2c-0.9-0.1-1.2-1.3-0.4-1.7l101.6-58.7C177.4,54.8,178.2,55.2,178.2,56z M112.9,234.7
			l-42.1,8c-0.6,0.1-1.1-0.3-1.1-0.9v-114c0-1,1.4-1.3,1.8-0.3l42.1,106.1C113.8,234,113.5,234.6,112.9,234.7z M74.5,244.6l40.3-7.6
			c0.3-0.1,0.6,0.1,0.9,0.3l54.2,62.2c0.7,0.8-0.3,1.9-1.2,1.4l-94.5-54.5C73.5,245.9,73.6,244.8,74.5,244.6z M244.1,237l40.3,7.6
			c0.8,0.2,1,1.3,0.3,1.7l-94.5,54.5c-0.9,0.5-1.8-0.6-1.2-1.4l54.2-62.2C243.5,237,243.8,236.9,244.1,237z"/>
	</g>
</g>
</svg>
