<?xml version="1.0" encoding="UTF-8"?>
<svg width="580" height="400" xmlns="http://www.w3.org/2000/svg">
 <!-- Created with Method Draw - http://github.com/duopixel/Method-Draw/ -->

 <g>
  <title>background</title>
  <rect x="-1" y="-1" width="582" height="402" id="canvas_background" fill="#fff"/>
  <g id="canvasGrid" display="none">
   <rect id="svg_25" width="100%" height="100%" x="0" y="0" stroke-width="0" fill="url(#gridpattern)"/>
  </g>
 </g>
 <g>
  <title>Layer 1</title>
  <path fill="#fff" stroke="#000" stroke-width="1.5" d="m351.442993,162.341736l16.499298,-31.499985l43.998993,0l16.498627,31.499985l-16.498627,31.5l-43.998993,0l-16.499298,-31.5z" id="svg_6"/>
  <path fill="#fff" stroke="#000" stroke-width="1.5" d="m249.442978,110.341736l16.499313,-31.499985l43.998993,0l16.498627,31.499985l-16.498627,31.5l-43.998993,0l-16.499313,-31.5z" id="svg_4"/>
  <text fill="#000000" stroke="#000" stroke-width="0" x="261.5" y="121" id="svg_1" font-size="24" font-family="Helvetica, Arial, sans-serif" text-anchor="left" xml:space="preserve">市场</text>
  <text fill="#000000" stroke="#000" stroke-width="0" x="367.5" y="170" id="svg_2" font-size="24" font-family="Helvetica, Arial, sans-serif" text-anchor="left" xml:space="preserve">猎人</text>
  <path fill="#fff" stroke="#000" stroke-width="1.5" d="m158.442978,172.341736l16.499313,-31.499985l43.998993,0l16.498627,31.499985l-16.498627,31.5l-43.998993,0l-16.499313,-31.5z" id="svg_5"/>
  <text fill="#000000" stroke="#000" stroke-width="0" x="174.5" y="180" id="svg_3" font-size="24" font-family="Helvetica, Arial, sans-serif" text-anchor="left" xml:space="preserve">贵族</text>
  <path fill="#fff" stroke="#000" stroke-width="1.5" d="m351.442993,54.341736l16.499298,-31.5l43.998993,0l16.498657,31.5l-16.498657,31.5l-43.998993,0l-16.499298,-31.5z" id="svg_7"/>
  <text fill="#000000" stroke="#000" stroke-width="0" x="367.5" y="61" id="svg_8" font-size="24" font-family="Helvetica, Arial, sans-serif" text-anchor="left" xml:space="preserve">贫民</text>
  <path fill="#fff" stroke="#000" stroke-width="1.5" d="m147.442993,64.341736l16.499298,-31.5l43.998993,0l16.498627,31.5l-16.498627,31.5l-43.998993,0l-16.499298,-31.5z" id="svg_9"/>
  <text fill="#000000" stroke="#000" stroke-width="0" x="163.5" y="72" id="svg_10" font-size="24" font-family="Helvetica, Arial, sans-serif" text-anchor="left" xml:space="preserve">竞技</text>
  <path fill="#fff" stroke="#000" stroke-width="1.5" d="m165.442993,255.341736l16.499298,-31.499985l43.998993,0l16.498627,31.499985l-16.498627,31.5l-43.998993,0l-16.499298,-31.5z" id="svg_11"/>
  <text fill="#000000" stroke="#000" stroke-width="0" x="180.5" y="263" id="svg_12" font-size="24" font-family="Helvetica, Arial, sans-serif" text-anchor="left" xml:space="preserve">宫殿</text>
  <path fill="#fff" stroke="#000" stroke-width="1.5" d="m163.442993,342.341736l16.499298,-31.5l43.998993,0l16.498657,31.5l-16.498657,31.5l-43.998993,0l-16.499298,-31.5z" id="svg_13"/>
  <text fill="#000000" stroke="#000" stroke-width="0" x="179.5" y="350" id="svg_14" font-size="24" font-family="Helvetica, Arial, sans-serif" text-anchor="left" xml:space="preserve">飞船</text>
  <path fill="#fff" stroke="#000" stroke-width="1.5" d="m255.442993,202.341736l16.499298,-31.5l43.998993,0l16.498627,31.5l-16.498627,31.5l-43.998993,0l-16.499298,-31.5z" id="svg_15"/>
  <text fill="#000000" stroke="#000" stroke-width="0" x="271.5" y="210" id="svg_16" font-size="24" font-family="Helvetica, Arial, sans-serif" text-anchor="left" xml:space="preserve">神庙</text>
  <path fill="#fff" stroke="#000" stroke-width="1.5" d="m349.442993,347.341736l16.499298,-31.5l43.998993,0l16.498627,31.5l-16.498627,31.5l-43.998993,0l-16.499298,-31.5z" id="svg_17"/>
  <text fill="#000000" stroke="#000" stroke-width="0" x="363.5" y="360" id="svg_18" font-size="24" font-family="Helvetica, Arial, sans-serif" text-anchor="left" xml:space="preserve">骑士</text>
  <path fill="#fff" stroke="#000" stroke-width="1.5" d="m349.442993,249.341736l16.499298,-31.5l43.998993,0l16.498627,31.5l-16.498627,31.5l-43.998993,0l-16.499298,-31.5z" id="svg_19"/>
  <text fill="#000000" stroke="#000" stroke-width="0" x="364.5" y="257" id="svg_20" font-size="24" font-family="Helvetica, Arial, sans-serif" text-anchor="left" xml:space="preserve">学院</text>
  <line fill="none" stroke="#000" stroke-width="1.5" stroke-opacity="null" fill-opacity="null" x1="323.5" y1="129" x2="345.5" y2="146" id="svg_21" stroke-linejoin="null" stroke-linecap="null"/>
  <line fill="none" stroke="#000" stroke-width="1.5" stroke-opacity="null" fill-opacity="null" x1="289.5" y1="145" x2="289.5" y2="163.11077" id="svg_22" stroke-linejoin="null" stroke-linecap="null"/>
  <line fill="none" stroke="#000" stroke-width="1.5" stroke-opacity="null" fill-opacity="null" x1="250.5" y1="133" x2="234.46878" y2="149.03122" id="svg_23" stroke-linejoin="null" stroke-linecap="null"/>
  <line fill="none" stroke="#000" stroke-width="1.5" stroke-opacity="null" fill-opacity="null" x1="387.5" y1="198" x2="387.5" y2="211.038405" id="svg_24" stroke-linejoin="null" stroke-linecap="null"/>
  <line fill="none" stroke="#000" stroke-width="1.5" stroke-opacity="null" fill-opacity="null" x1="333.5" y1="217" x2="345.541595" y2="229.041595" id="svg_26" stroke-linejoin="null" stroke-linecap="null"/>
  <line fill="none" stroke="#000" stroke-width="1.5" stroke-opacity="null" fill-opacity="null" x1="262.5" y1="221" x2="249.5" y2="239" id="svg_28" stroke-linejoin="null" stroke-linecap="null"/>
  <line fill="none" stroke="#000" stroke-width="1.5" stroke-opacity="null" fill-opacity="null" x1="256.5" y1="284" x2="244.5" y2="279" id="svg_29" stroke-linejoin="null" stroke-linecap="null"/>
  <line fill="none" stroke="#000" stroke-width="1.5" stroke-opacity="null" fill-opacity="null" x1="332.5" y1="311" x2="347.5" y2="326" id="svg_31" stroke-linejoin="null" stroke-linecap="null"/>
  <line fill="none" stroke="#000" stroke-width="1.5" stroke-opacity="null" fill-opacity="null" x1="334.5" y1="278" x2="344.5" y2="268" id="svg_32" stroke-linejoin="null" stroke-linecap="null"/>
  <line fill="none" stroke="#000" stroke-width="1.5" stroke-opacity="null" fill-opacity="null" x1="262.5" y1="317" x2="248.269751" y2="331.230249" id="svg_33" stroke-linejoin="null" stroke-linecap="null"/>
  <line fill="none" stroke="#000" stroke-width="1.5" stroke-opacity="null" fill-opacity="null" x1="293.5" y1="237" x2="293.5" y2="256.416488" id="svg_34" stroke-linejoin="null" stroke-linecap="null"/>
  <line fill="none" stroke="#000" stroke-width="1.5" stroke-opacity="null" fill-opacity="null" x1="332.5" y1="185" x2="347.5" y2="175" id="svg_35" stroke-linejoin="null" stroke-linecap="null"/>
  <line fill="none" stroke="#000" stroke-width="1.5" stroke-opacity="null" fill-opacity="null" x1="389.5" y1="288" x2="389.5" y2="308.248457" id="svg_37" stroke-linejoin="null" stroke-linecap="null"/>
  <line fill="none" stroke="#000" stroke-width="1.5" stroke-opacity="null" fill-opacity="null" x1="249.5" y1="194" x2="239.5" y2="185" id="svg_38" stroke-linejoin="null" stroke-linecap="null"/>
  <line fill="none" stroke="#000" stroke-width="1.5" stroke-opacity="null" fill-opacity="null" x1="202.5" y1="208" x2="202.5" y2="217" id="svg_39" stroke-linejoin="null" stroke-linecap="null"/>
  <line fill="none" stroke="#000" stroke-width="1.5" stroke-opacity="null" fill-opacity="null" x1="206.5" y1="292" x2="206.5" y2="304.041595" id="svg_40" stroke-linejoin="null" stroke-linecap="null"/>
  <path fill="#fff" stroke="#000" stroke-width="1.5" d="m253.442993,291.341736l16.499298,-31.5l43.998993,0l16.498657,31.5l-16.498657,31.5l-43.998993,0l-16.499298,-31.5z" id="svg_27"/>
  <text style="cursor: move;" fill="#000000" stroke="#000" stroke-width="0" x="269.5" y="299" id="svg_36" font-size="24" font-family="Helvetica, Arial, sans-serif" text-anchor="left" xml:space="preserve">花园</text>
  <line stroke-linecap="null" stroke-linejoin="null" id="svg_41" y2="92" x2="247" y1="84" x1="222" fill-opacity="null" stroke-opacity="null" stroke-width="1.5" stroke="#000" fill="none"/>
  <line stroke-linecap="null" stroke-linejoin="null" id="svg_42" y2="75" x2="356" y1="92" x1="324" fill-opacity="null" stroke-opacity="null" stroke-width="1.5" stroke="#000" fill="none"/>
 </g>
</svg>